HIERARCHY
ROOT Hips
{
	OFFSET	0.00	0.00	0.00
	CHANNELS 6 Xposition Yposition Zposition Zrotation Xrotation Yrotation
	JOINT LeftUpLeg
	{
		OFFSET	 0.126116	-0.065224	 0.014019
		CHANNELS 3 Zrotation Xrotation Yrotation
		JOINT LeftLeg
		{
			OFFSET	 0.000000	 0.569914	 0.000000
			CHANNELS 3 Zrotation Xrotation Yrotation
			JOINT LeftFoot
			{
				OFFSET	 0.000000	 0.544423	 0.000000
				CHANNELS 3 Zrotation Xrotation Yrotation
				JOINT LeftToeBase
				{
					OFFSET	 0.000000	 0.207117	 0.000000
					CHANNELS 3 Zrotation Xrotation Yrotation
					End Site
					{
						OFFSET	 0.000000	 0.207117	 0.000000
					}
				}
			}
		}
	}
	JOINT RightUpLeg
	{
		OFFSET	-0.124023	-0.065224	 0.008373
		CHANNELS 3 Zrotation Xrotation Yrotation
		JOINT RightLeg
		{
			OFFSET	 0.000000	 0.570047	 0.000000
			CHANNELS 3 Zrotation Xrotation Yrotation
			JOINT RightFoot
			{
				OFFSET	 0.000000	 0.544354	 0.000000
				CHANNELS 3 Zrotation Xrotation Yrotation
				JOINT RightToeBase
				{
					OFFSET	 0.000000	 0.207540	 0.000000
					CHANNELS 3 Zrotation Xrotation Yrotation
					End Site
					{
						OFFSET	 0.000000	 0.207540	 0.000000
					}
				}
			}
		}
	}
	JOINT Spine
	{
		OFFSET	 0.000184	 0.117403	 0.007763
		CHANNELS 3 Zrotation Xrotation Yrotation
		JOINT Spine1
		{
			OFFSET	 0.000000	 0.137269	 0.000000
			CHANNELS 3 Zrotation Xrotation Yrotation
			JOINT Spine2
			{
				OFFSET	 0.000000	 0.156879	 0.000000
				CHANNELS 3 Zrotation Xrotation Yrotation
				JOINT LeftShoulder
				{
					OFFSET	 0.080501	 0.160143	 0.002496
					CHANNELS 3 Zrotation Xrotation Yrotation
					JOINT LeftArm
					{
						OFFSET	 0.000000	 0.164363	 0.000000
						CHANNELS 3 Zrotation Xrotation Yrotation
						JOINT LeftForeArm
						{
							OFFSET	 0.000000	 0.364576	 0.000000
							CHANNELS 3 Zrotation Xrotation Yrotation
							JOINT LeftHand
							{
								OFFSET	 0.000000	 0.360812	 0.000000
								CHANNELS 3 Zrotation Xrotation Yrotation
								JOINT LeftHandIndex1
								{
									OFFSET	 0.000000	 0.086006	 0.000000
									CHANNELS 3 Zrotation Xrotation Yrotation
									JOINT LeftHandIndex2
									{
										OFFSET	 0.000000	 0.047237	 0.000000
										CHANNELS 3 Zrotation Xrotation Yrotation
										JOINT LeftHandIndex3
										{
											OFFSET	-0.004284	 0.038165	 0.000551
											CHANNELS 3 Zrotation Xrotation Yrotation
											End Site
											{
												OFFSET	-0.004284	 0.038165	 0.000551
											}
										}
									}
								}
							}
						}
					}
				}
				JOINT Neck
				{
					OFFSET	 0.000000	 0.176489	 0.000000
					CHANNELS 3 Zrotation Xrotation Yrotation
					JOINT Head
					{
						OFFSET	 0.000000	 0.077941	 0.001747
						CHANNELS 3 Zrotation Xrotation Yrotation
						End Site
						{
							OFFSET	 0.000000	 0.077941	 0.001747
						}
					}
				}
				JOINT RightShoulder
				{
					OFFSET	-0.080363	 0.159706	-0.000306
					CHANNELS 3 Zrotation Xrotation Yrotation
					JOINT RightArm
					{
						OFFSET	 0.000000	 0.164196	 0.000000
						CHANNELS 3 Zrotation Xrotation Yrotation
						JOINT RightForeArm
						{
							OFFSET	 0.000000	 0.365611	 0.000000
							CHANNELS 3 Zrotation Xrotation Yrotation
							JOINT RightHand
							{
								OFFSET	 0.000000	 0.360648	 0.000000
								CHANNELS 3 Zrotation Xrotation Yrotation
								JOINT RightHandIndex1
								{
									OFFSET	 0.000000	 0.069977	 0.000000
									CHANNELS 3 Zrotation Xrotation Yrotation
									JOINT RightHandIndex2
									{
										OFFSET	 0.000000	 0.052305	 0.000000
										CHANNELS 3 Zrotation Xrotation Yrotation
										JOINT RightHandIndex3
										{
											OFFSET	 0.009002	 0.042196	 0.000782
											CHANNELS 3 Zrotation Xrotation Yrotation
											End Site
											{
												OFFSET	 0.009002	 0.042196	 0.000782
											}
										}
									}
								}
							}
						}
					}
				}
			}
		}
	}
}
MOTION
Frames:    7
Frame Time: 0.03333334
 0.013247	 1.231252	-0.207555	 4.796828	 0.302101	 173.963500	-177.624900	 16.372220	 19.529770	 3.854667	-36.097210	 1.832301	 58.699940	 51.877920	-77.692860	 4.912823	 28.009650	-6.307259	-170.797000	-18.548230	-7.896114	-0.428269	-4.956835	 2.161934	-74.183540	 64.200810	 76.610210	-0.375444	 31.170380	 1.631998	 1.346143	 3.973352	-9.750199	 9.951365	 8.631833	-5.532347	-8.587302	-6.671131	 17.973700	-112.572800	 3.140140	 88.315780	-10.403930	 50.443650	 35.206320	 28.883410	-1.458938	 0.944053	-20.389930	-7.196140	-78.932330	-8.025439	 12.502670	-5.831190	-7.228703	 12.665640	 2.804234	 4.963066	-4.014628	-0.346955	 1.528192	-13.929950	 1.347994	-2.034200	 8.872307	-23.843000	 109.137600	 0.665495	-88.590530	-12.813130	 67.368380	 12.194820	-5.088456	-0.470278	 41.403190	-20.266710	 9.946171	-85.385940	 2.021950	 8.325932	 8.960834	 15.202860	 20.243160	-6.342599	-8.239867	-2.131385	 0.447455
 0.012915	 1.231372	-0.206424	 4.778924	 0.285665	 173.997000	-177.643300	 16.389580	 19.554530	 3.847880	-36.049190	 1.842327	 58.597810	 51.842610	-77.586020	 4.912824	 28.009660	-6.307253	-170.813000	-18.474180	-7.893501	-0.428604	-4.960696	 2.126993	-74.022500	 64.121640	 76.468640	-0.378335	 31.173910	 1.634865	 1.339351	 3.978282	-9.752983	 9.886774	 8.574800	-5.520510	-8.512219	-6.607104	 17.962410	-112.556300	 3.119561	 88.312960	-10.449620	 50.472150	 35.203910	 28.963910	-1.462644	 0.945340	-20.705340	-7.281828	-78.753170	-8.006502	 12.518200	-5.835874	-7.228788	 12.662040	 2.803742	 4.963066	-4.014628	-0.346955	 1.511227	-13.904170	 1.356662	-2.025961	 8.945683	-23.896020	 109.117000	 0.681180	-88.598500	-12.809730	 67.347660	 12.258000	-5.089665	-0.470284	 41.352370	-20.336120	 9.896396	-85.384150	 2.005650	 8.281968	 8.960451	 15.202920	 20.252910	-6.345267	-8.239867	-2.131385	 0.447455
 0.012496	 1.231456	-0.205189	 4.754852	 0.263585	 174.041700	-177.673800	 16.420080	 19.591100	 3.842354	-36.010130	 1.857878	 58.494190	 51.803370	-77.479350	 4.912825	 28.009670	-6.307247	-170.835600	-18.390350	-7.884329	-0.428729	-4.962036	 2.080322	-73.849140	 64.026320	 76.319970	-0.382227	 31.178670	 1.638726	 1.330360	 3.984494	-9.755651	 9.799263	 8.499018	-5.503960	-8.411038	-6.521177	 17.947010	-112.534200	 3.091838	 88.309140	-10.491630	 50.519120	 35.185940	 29.039550	-1.466094	 0.946281	-21.110930	-7.401488	-78.511440	-7.981004	 12.539100	-5.842190	-7.228904	 12.657190	 2.803080	 4.963066	-4.014628	-0.346955	 1.488382	-13.869460	 1.368343	-2.014727	 9.044451	-23.967460	 109.089400	 0.702307	-88.609210	-12.796250	 67.319780	 12.334710	-5.093009	-0.470702	 41.284730	-20.430590	 9.830747	-85.380310	 1.983706	 8.222773	 8.959915	 15.203010	 20.266040	-6.348860	-8.239867	-2.131385	 0.447455
 0.012069	 1.231485	-0.204093	 4.729144	 0.239621	 174.089700	-177.711000	 16.458870	 19.632480	 3.839381	-35.988880	 1.876056	 58.409960	 51.768780	-77.394230	 4.912827	 28.009680	-6.307240	-170.859700	-18.310100	-7.869799	-0.429030	-4.965581	 2.031226	-73.702110	 63.934320	 76.199010	-0.386370	 31.183730	 1.642834	 1.320951	 3.990532	-9.757830	 9.705396	 8.419151	-5.486148	-8.303087	-6.430202	 17.930360	-112.510700	 3.062360	 88.305120	-10.522540	 50.574900	 35.156200	 29.096000	-1.468657	 0.946659	-21.527210	-7.533104	-78.253640	-7.953869	 12.561340	-5.848920	-7.229028	 12.652030	 2.802375	 4.963066	-4.014628	-0.346955	 1.464071	-13.832530	 1.380786	-2.002594	 9.149524	-24.043590	 109.059900	 0.724809	-88.620630	-12.775440	 67.289640	 12.410470	-5.096459	-0.471003	 41.212600	-20.532890	 9.762619	-85.373950	 1.960361	 8.159790	 8.959319	 15.203100	 20.280020	-6.352684	-8.239867	-2.131385	 0.447455
 0.011441	 1.231452	-0.202693	 4.689944	 0.203985	 174.162100	-177.773700	 16.523930	 19.698650	 3.838405	-35.982070	 1.905613	 58.314520	 51.724550	-77.300930	 4.912829	 28.009690	-6.307230	-170.897700	-18.203150	-7.842256	-0.429305	-4.968773	 1.957280	-73.519520	 63.805740	 76.055200	-0.392689	 31.191450	 1.649101	 1.307014	 4.001573	-9.758936	 9.560432	 8.297063	-5.457267	-8.137753	-6.291255	 17.904480	-112.474700	 3.017389	 88.299000	-10.553370	 50.666680	 35.097980	 29.152870	-1.471258	 0.946462	-22.141140	-7.741521	-77.858260	-7.912471	 12.595250	-5.859207	-7.229216	 12.644160	 2.801301	 4.963066	-4.014628	-0.346955	 1.426983	-13.776220	 1.399791	-1.983737	 9.309726	-24.159840	 109.015100	 0.759118	-88.637990	-12.733520	 67.242020	 12.516150	-5.100001	-0.471274	 41.102330	-20.692660	 9.662226	-85.359010	 1.924760	 8.063730	 8.958363	 15.203250	 20.301320	-6.358516	-8.239867	-2.131385	 0.447455
 0.010912	 1.231370	-0.201664	 4.656100	 0.172649	 174.224600	-177.832200	 16.585690	 19.758100	 3.840112	-35.994110	 1.932503	 58.254100	 51.692390	-77.244830	 4.912830	 28.009700	-6.307220	-170.931000	-18.118730	-7.814629	-0.429596	-4.972108	 1.894270	-73.390500	 63.703020	 75.959520	-0.398152	 31.198120	 1.654519	 1.295370	 4.010650	-9.758148	 9.434017	 8.192082	-5.431338	-7.994551	-6.171413	 17.881640	-112.443700	 2.978508	 88.293700	-10.570590	 50.749560	 35.040260	 29.183070	-1.472584	 0.945796	-22.655980	-7.928476	-77.515020	-7.876684	 12.624550	-5.868120	-7.229378	 12.637350	 2.800372	 4.963066	-4.014628	-0.346955	 1.394920	-13.727560	 1.416243	-1.967093	 9.448138	-24.260530	 108.976300	 0.788785	-88.652970	-12.685920	 67.199700	 12.596970	-5.103192	-0.471578	 41.007430	-20.832920	 9.578429	-85.342350	 1.893995	 7.980706	 8.957489	 15.203380	 20.319740	-6.363558	-8.239867	-2.131385	 0.447455
 0.010337	 1.231238	-0.200674	 4.618925	 0.138363	 174.293700	-177.899900	 16.657200	 19.825200	 3.843956	-36.021440	 1.963006	 58.204810	 51.662400	-77.201920	 4.912833	 28.009710	-6.307210	-170.968200	-18.033470	-7.781336	-0.429841	-4.974983	 1.825953	-73.270060	 63.596180	 75.875550	-0.404161	 31.205460	 1.660478	 1.283087	 4.021466	-9.755802	 9.293530	 8.076259	-5.401869	-7.836524	-6.039462	 17.855920	-112.409600	 2.935748	 88.287910	-10.583260	 50.842820	 34.971470	 29.202500	-1.473446	 0.944796	-23.208600	-8.141011	-77.135620	-7.837311	 12.656780	-5.877945	-7.229557	 12.629870	 2.799351	 4.963066	-4.014628	-0.346955	 1.359645	-13.674060	 1.434366	-1.948416	 9.600323	-24.371440	 108.933600	 0.821436	-88.669410	-11.095830	 67.335330	 11.267570	-6.343760	-0.585795	 40.891620	-20.461190	 9.149156	-85.450080	 1.860162	 7.889383	 8.956472	 15.203520	 20.340000	-6.369103	-8.239867	-2.131385	 0.447455
